<svg width="57" height="110" viewBox="0 0 57 110" fill="none" xmlns="http://www.w3.org/2000/svg">
<path fill-rule="evenodd" clip-rule="evenodd" d="M46.3308 0.744748C46.324 0.727598 46.3168 0.710503 46.3092 0.693477C46.0554 0.128942 45.3821 -0.146452 44.8054 0.078367L18.3755 10.3814C18.3595 10.3807 18.3435 10.3803 18.3274 10.3803C17.7084 10.3803 17.2066 10.8821 17.2066 11.5011V20.8476C16.9754 20.8699 16.7513 20.9431 16.5508 21.0627L12.2692 23.6177C10.2092 24.847 8.39161 26.4429 6.90627 28.3266L5.71068 29.8429C4.58991 31.2643 3.6172 32.7964 2.80768 34.4153C-1.26472 42.5596 -0.886742 52.2211 3.80946 60.0223L4.02336 60.3776L4.02413 60.3789L8.07616 67.2966C8.76481 68.4723 9.23459 69.763 9.4627 71.1063C9.95244 73.9902 9.30184 76.9514 7.64836 79.3645L5.65289 82.2766L3.97891 84.0125C3.27249 84.745 3.79164 85.9668 4.80935 85.9668H16.433C16.7121 85.9668 16.9754 85.8981 17.2066 85.7766V108.879C17.2066 109.498 17.7084 110 18.3274 110C18.3942 110 18.4597 109.994 18.5233 109.983C18.8134 110.02 19.1165 109.954 19.3657 109.778L45.7332 91.1275C45.8367 91.0543 45.9229 90.9676 45.9911 90.872C46.2819 90.6695 46.4722 90.3328 46.4722 89.9516V78.7874C47.4423 78.6025 48.3358 78.1087 49.012 77.3681L50.2199 76.0453C50.7624 75.4511 51.03 74.6561 50.9572 73.8548L50.7048 71.0789L50.7598 71.0287C52.3967 69.5342 53.0606 67.2737 52.5324 65.1584L53.29 64.0853C53.7156 63.4824 53.892 62.7385 53.7825 62.0088L53.6331 61.0127L54.7836 60.3142C56.1597 59.4788 57 57.9857 57 56.3759V55.3051C57 54.2246 56.6572 53.1719 56.0209 52.2986L51.0914 45.5331C50.9558 45.347 50.934 45.1012 51.0347 44.8941L52.3889 42.1108C52.7189 41.4324 52.8904 40.6879 52.8904 39.9335C52.8904 34.1401 50.4241 28.9087 46.4722 25.2496L46.4722 1.29018C46.4722 1.09218 46.4209 0.906175 46.3308 0.744748ZM44.2306 23.4538L44.2306 2.70508L19.4482 12.3658L19.4482 106.981L44.2306 89.4512V78.8689H40.2434C38.9012 78.8689 37.634 79.4872 36.808 80.545L31.4297 87.4324C30.9641 88.0287 30.1033 88.1346 29.507 87.6691C28.9107 87.2035 28.8047 86.3427 29.2703 85.7464L34.6485 78.859C35.9937 77.1363 38.0576 76.1294 40.2434 76.1294H45.6092C46.1341 76.1294 46.6348 75.9085 46.9887 75.5209L48.1966 74.1981C48.2202 74.1723 48.2319 74.1377 48.2287 74.1028L47.9472 71.007C47.888 70.3554 48.137 69.7135 48.6202 69.2724L48.9124 69.0056C49.8927 68.1106 50.2297 66.7094 49.7636 65.4667C49.5895 65.0023 49.6565 64.4819 49.9425 64.0768L51.0517 62.5054C51.0702 62.4792 51.0779 62.4469 51.0731 62.4151L50.8868 61.1733C50.7454 60.2304 51.1838 59.2948 51.9988 58.7999L53.3617 57.9725C53.9196 57.6338 54.2603 57.0285 54.2603 56.3759V55.3051C54.2603 54.8044 54.1014 54.3165 53.8065 53.9119L48.8771 47.1463C48.1447 46.1412 48.027 44.8139 48.5711 43.6957L49.9252 40.9123C50.0736 40.6073 50.1507 40.2727 50.1507 39.9335C50.1507 30.5948 42.7254 22.9483 33.3901 22.6738L30.3098 22.5832C29.5535 22.561 28.9585 21.9299 28.9808 21.1738C29.003 20.4176 29.6341 19.8226 30.3903 19.8449L33.4706 19.9354C37.4668 20.053 41.1608 21.3364 44.2306 23.4538Z" fill="white" style="fill:white;fill-opacity:1;"/>
</svg>
